<?xml version="1.0" encoding="UTF-8" standalone="no"?>
<!-- Created with Inkscape (http://www.inkscape.org/) -->
<svg
   xmlns:dc="http://purl.org/dc/elements/1.1/"
   xmlns:cc="http://creativecommons.org/ns#"
   xmlns:rdf="http://www.w3.org/1999/02/22-rdf-syntax-ns#"
   xmlns:svg="http://www.w3.org/2000/svg"
   xmlns="http://www.w3.org/2000/svg"
   xmlns:sodipodi="http://sodipodi.sourceforge.net/DTD/sodipodi-0.dtd"
   xmlns:inkscape="http://www.inkscape.org/namespaces/inkscape"
   id="svg2"
   sodipodi:version="0.32"
   inkscape:version="0.46"
   width="600"
   height="599"
   version="1.0"
   sodipodi:docname="Dharma-Logo-Stern.svg"
   inkscape:output_extension="org.inkscape.output.svg.inkscape">
  <metadata
     id="metadata7">
    <rdf:RDF>
      <cc:Work
         rdf:about="">
        <dc:format>image/svg+xml</dc:format>
        <dc:type
           rdf:resource="http://purl.org/dc/dcmitype/StillImage" />
      </cc:Work>
    </rdf:RDF>
  </metadata>
  <defs
     id="defs5">
    <inkscape:perspective
       sodipodi:type="inkscape:persp3d"
       inkscape:vp_x="0 : 526.18109 : 1"
       inkscape:vp_y="0 : 1000 : 0"
       inkscape:vp_z="744.09448 : 526.18109 : 1"
       inkscape:persp3d-origin="372.04724 : 350.78739 : 1"
       id="perspective9" />
  </defs>
  <sodipodi:namedview
     inkscape:window-height="968"
     inkscape:window-width="1280"
     inkscape:pageshadow="2"
     inkscape:pageopacity="0.0"
     guidetolerance="10.0"
     gridtolerance="10.0"
     objecttolerance="10.0"
     borderopacity="1.0"
     bordercolor="#666666"
     pagecolor="#ffffff"
     id="base"
     showgrid="false"
     inkscape:zoom="1.0907624"
     inkscape:cx="464.12946"
     inkscape:cy="315.09697"
     inkscape:window-x="-4"
     inkscape:window-y="-4"
     inkscape:current-layer="svg2" />
  <rect
     style="opacity:1;fill:#ffffff;fill-opacity:1;fill-rule:evenodd;stroke:none;stroke-width:1;stroke-linecap:butt;stroke-linejoin:miter;stroke-miterlimit:4;stroke-dasharray:none;stroke-opacity:1"
     id="rect2379"
     width="567.88312"
     height="242.45238"
     x="12.965368"
     y="181.51515" />
  <rect
     style="opacity:1;fill:#ffffff;fill-opacity:1;fill-rule:evenodd;stroke:none;stroke-width:1;stroke-linecap:butt;stroke-linejoin:miter;stroke-miterlimit:4;stroke-dasharray:none;stroke-opacity:1"
     id="rect2381"
     width="242.45238"
     height="561.40045"
     x="178.92207"
     y="18.151518" />
  <rect
     style="opacity:1;fill:#ffffff;fill-opacity:1;fill-rule:evenodd;stroke:none;stroke-width:1;stroke-linecap:butt;stroke-linejoin:miter;stroke-miterlimit:4;stroke-dasharray:none;stroke-opacity:1"
     id="rect2383"
     width="242.45236"
     height="561.40045"
     x="-115.12244"
     y="145.56439"
     transform="matrix(0.715658,-0.6984508,0.6984508,0.715658,0,0)" />
  <rect
     style="opacity:1;fill:#ffffff;fill-opacity:1;fill-rule:evenodd;stroke:none;stroke-width:1;stroke-linecap:butt;stroke-linejoin:miter;stroke-miterlimit:4;stroke-dasharray:none;stroke-opacity:1"
     id="rect2385"
     width="242.45238"
     height="561.40045"
     x="298.15829"
     y="-295.47375"
     transform="matrix(0.6987468,0.7153691,-0.7153691,0.6987468,0,0)" />
  <path
     style="fill:#000000"
     d="M 88.87344,511.19724 L 0,423.39447 L 0.60729,300.89447 L 1.21457,178.39447 L 89.77242,90.211216 L 178.33028,2.0279609 L 183.53858,1.5035149 C 186.40314,1.2150699 240.8867,0.73710889 304.61317,0.44137989 L 420.47946,-0.096308107 L 510.36317,89.037534 L 600.24687,178.17138 L 600.22822,301.28292 L 600.20958,424.39447 L 511.49035,511.14447 L 422.77113,597.89447 L 320.259,597.8971 L 176.83008,598.08321 L 88.87344,511.19724 z M 318.75572,568.89447 L 410.94397,568.89447 L 491.02165,490.64447 L 571.09934,412.39447 L 571.17311,301.34894 L 571.24687,190.30341 L 489.85356,109.61971 L 408.46026,28.936005 L 299.87794,29.579721 L 191.29563,30.223436 L 110.73255,110.30895 L 30.16947,190.39447 L 29.54369,300.6548 L 28.91791,410.91513 L 82.33239,463.60308 C 111.71035,492.58145 147.99523,528.42333 162.96545,543.25169 L 190.18402,570.21236 L 208.37575,569.55342 C 218.38121,569.191 268.05219,568.89447 318.75572,568.89447 z M 209.49687,547.23219 C 208.80937,546.95478 208.24687,545.89212 208.24687,544.87073 C 208.24687,541.33574 213.44809,528.38408 215.8675,525.89447 L 218.297,523.39447 L 251.89843,523.627 C 275.26418,523.7887 285.91825,524.20677 286.87336,524.99945 C 287.84929,525.8094 288.24687,528.70906 288.24687,535.01691 C 288.24687,548.92749 291.48643,547.91002 247.49687,547.81552 C 227.28437,547.7721 210.18437,547.5096 209.49687,547.23219 z M 302.80357,545.67196 C 300.54455,542.44675 300.56478,525.37019 302.82866,524.50146 C 303.69864,524.16761 319.58763,523.89447 338.13753,523.89447 C 363.54578,523.89447 372.28396,524.20278 373.56476,525.14447 C 374.49984,525.83197 377.07763,530.60314 379.29318,535.74707 C 382.44441,543.0634 383.06896,545.40392 382.16172,546.49707 C 381.20561,547.64912 374.27367,547.89447 342.68113,547.89447 L 304.36028,547.89447 L 302.80357,545.67196 z M 158.93336,511.14447 C 133.94031,486.31775 129.24687,480.9931 129.24687,477.46554 C 129.24687,475.03747 140.94276,462.89447 143.28143,462.89447 C 144.09584,462.89447 155.67123,473.81035 169.00452,487.15197 C 196.59033,514.75502 195.39389,512.60982 190.13555,525.03976 C 186.75622,533.02799 185.57942,534.89447 183.92223,534.89447 C 183.32836,534.89447 172.08337,524.20697 158.93336,511.14447 z M 404.86199,529.84892 C 401.0954,525.37257 396.01806,514.19076 396.73145,511.94306 C 397.06493,510.89235 422.37793,485.47658 452.98256,455.46358 C 495.43799,413.82886 509.19915,400.89447 511.03975,400.89447 C 512.36658,400.89447 517.23097,402.66528 521.84952,404.8296 C 529.27807,408.31074 530.24687,409.07059 530.24687,411.41581 C 530.24687,413.57679 523.91522,420.29261 495.99687,447.74393 C 429.82842,512.80549 411.28436,530.80404 409.3561,531.83601 C 407.7454,532.69803 406.9714,532.3558 404.86199,529.84892 z M 256.24687,513.92556 L 221.74687,513.39447 L 221.43401,511.19553 C 221.02752,508.3385 225.09964,493.24739 226.59546,492.06745 C 227.93912,491.00753 325.61846,490.01578 347.71855,490.83768 L 362.69022,491.39447 L 364.35678,495.89447 C 365.27339,498.36947 366.71322,502.71939 367.55641,505.56097 C 370.22743,514.5624 372.37797,514.07997 328.68275,514.2816 C 307.81802,514.37788 275.22187,514.21766 256.24687,513.92556 z M 179.22205,484.14447 C 153.26832,457.80189 152.91354,457.39387 152.91354,453.88833 C 152.91354,451.44771 154.16391,449.52576 158.7989,444.84189 C 162.17689,441.42828 165.55728,438.89447 166.73343,438.89447 C 170.04526,438.89447 208.24687,478.50869 208.24687,481.94299 C 208.24687,483.12921 206.47606,487.87857 204.31174,492.49712 C 201.03378,499.49209 199.98818,500.89447 198.05071,500.89447 C 196.36557,500.89447 191.17844,496.27999 179.22205,484.14447 z M 390.84672,498.58523 C 389.49538,497.23389 386.76863,492.90916 384.78728,488.97471 C 381.72103,482.88596 381.37549,481.55723 382.46584,480.04798 C 383.17041,479.07274 404.50027,457.71423 429.86554,432.58464 C 462.96316,399.79454 476.61345,386.89447 478.21285,386.89447 C 479.4386,386.89447 483.99769,388.74462 488.34417,391.0059 C 495.35918,394.65551 496.24687,395.43243 496.24687,397.92249 C 496.24687,400.30163 488.572,408.29576 445.71054,450.56106 C 417.91556,477.96943 394.75335,500.54021 394.23895,500.71833 C 393.72456,500.89646 392.19805,499.93656 390.84672,498.58523 z M 239.44687,478.69447 C 238.78687,478.03447 238.24687,476.53829 238.24687,475.36962 C 238.24687,472.67677 242.83522,459.0954 244.36957,457.24663 C 245.30243,456.1226 249.57747,455.90724 266.63549,456.12499 L 287.74687,456.39447 L 288.033,466.74847 C 288.22026,473.52467 287.91879,477.58486 287.16056,478.49847 C 285.59722,480.38218 241.31648,480.56408 239.44687,478.69447 z M 304.28334,479.00832 C 302.84738,478.60799 301.53335,477.29396 301.13302,475.858 C 300.2557,472.71105 300.05591,459.55568 300.85386,457.47626 C 301.75882,455.11797 345.30431,455.09477 347.66086,457.45132 C 348.51712,458.30758 350.42419,462.87777 351.89878,467.60729 L 354.57985,476.20642 L 352.30257,478.05045 C 350.237,479.72305 348.01373,479.8852 328.38609,479.79479 C 316.48452,479.73997 305.63828,479.38605 304.28334,479.00832 z M 90.01,442.1424 C 63.42903,415.54954 62.32696,414.33495 62.27867,411.57986 C 62.2411,409.43624 77.59124,401.89447 81.99181,401.89447 C 84.19408,401.89447 89.14503,406.33902 108.47367,425.66767 C 126.62459,443.81858 132.24687,450.02288 132.24687,451.90185 C 132.24687,454.91908 119.89331,466.89556 116.78434,466.8924 C 115.4571,466.89105 106.12401,458.26361 90.01,442.1424 z M 170.49687,426.52713 C 145.51486,401.45399 131.24687,386.41973 131.24687,385.1692 C 131.24687,382.66734 133.13204,381.0648 141.52445,376.43248 C 146.04832,373.93546 149.04103,372.8814 150.52445,373.26259 C 151.74678,373.57669 168.47437,389.57727 187.69687,408.81942 C 227.18144,448.34436 225.00844,445.10034 219.7704,456.70127 C 216.95386,462.93919 214.23773,465.88233 211.27436,465.90739 C 210.43424,465.91449 192.08437,448.19338 170.49687,426.52713 z M 378.04136,462.14447 C 375.2592,458.93179 369.24687,447.2306 369.24687,445.02865 C 369.24687,443.50816 376.68374,435.57675 393.99687,418.6328 C 443.39394,370.28907 440.54441,372.89447 444.02104,372.89447 C 447.48875,372.89447 457.62594,377.02256 460.46288,379.58996 C 464.52013,383.26171 463.27584,384.90931 436.99687,410.66195 C 388.0033,458.67425 382.51628,463.89447 381.04368,463.89447 C 380.22592,463.89447 378.87488,463.10697 378.04136,462.14447 z M 128.99613,433.14447 C 111.31205,415.85164 95.24687,398.11422 95.24687,395.88223 C 95.24687,394.23268 96.90222,393.02632 102.94337,390.27328 C 115.43502,384.58065 114.94025,384.51027 124.4629,393.33421 C 136.99986,404.95128 157.24687,426.89211 157.24687,428.86081 C 157.24687,431.1594 143.69114,442.89447 141.03593,442.89447 C 139.76688,442.89447 135.1111,439.12415 128.99613,433.14447 z M 279.74687,435.43904 C 228.86728,427.4411 187.4727,393.05621 170.36882,344.58288 C 164.94974,329.22491 162.96916,317.33134 162.92708,299.89447 C 162.88538,282.61377 164.37941,272.7593 169.4408,256.93075 C 182.82512,215.0738 216.90075,181.37417 259.24687,168.11563 C 274.64212,163.29538 281.17908,162.39438 300.74687,162.39556 C 320.3374,162.39674 326.57077,163.35464 344.00162,169.04259 C 384.47671,182.25025 416.91544,214.85027 430.76196,256.23434 C 435.6633,270.8833 437.56378,282.94259 437.56378,299.39447 C 437.56378,315.94712 435.66256,327.90712 430.64881,342.89447 C 416.2485,385.9406 380.90839,419.58712 337.19375,431.87091 C 319.91053,436.72748 296.99715,438.15067 279.74687,435.43904 z M 314.88338,430.82873 C 365.44752,425.19049 409.3624,389.90729 425.5745,341.89447 C 430.60355,327.00072 431.74978,318.87347 431.70952,298.39447 C 431.67564,281.15448 431.42215,278.39646 428.97304,268.62053 C 422.6267,243.28826 411.58933,223.97399 392.82243,205.36066 C 373.63072,186.32599 351.45941,174.58666 324.58614,169.23071 C 311.43781,166.6102 287.02577,166.85105 273.53457,169.7344 C 235.35042,177.89513 204.11366,200.99472 184.02371,235.92768 C 179.61926,243.58626 174.35425,257.31658 171.48735,268.62053 C 168.95512,278.60491 168.75656,280.86016 168.77788,299.39447 C 168.79903,317.77897 169.01975,320.26474 171.51036,330.16841 C 187.97094,395.62235 248.63755,438.21557 314.88338,430.82873 z M 281.03229,415.34382 C 267.17823,413.18662 245.25099,404.86777 236.90569,398.60289 C 235.53503,397.57393 240.11873,394.02277 267.77143,374.69008 L 300.24687,351.98568 L 332.72231,374.69008 C 360.37501,394.02277 364.95871,397.57393 363.58805,398.60289 C 359.60054,401.59634 345.78193,408.08836 337.47075,410.87287 C 320.3893,416.59568 299.63229,418.24001 281.03229,415.34382 z M 219.73655,384.76926 C 214.97497,380.19796 208.84395,373.51855 206.11206,369.92614 C 199.2559,360.91036 189.84313,341.41923 186.53826,329.39447 C 183.99309,320.13386 183.78829,317.98963 183.76837,300.39447 C 183.74653,281.09766 185.30935,268.47523 187.6431,269.09931 C 190.4957,269.86213 252.28961,317.3407 251.86614,318.44427 C 251.60598,319.12223 246.37801,336.03308 240.24844,356.02392 C 234.11887,376.01477 228.94405,392.53062 228.74886,392.72582 C 228.55366,392.92101 224.49812,389.34056 219.73655,384.76926 z M 360.32582,356.29684 C 354.16898,336.20025 348.91175,319.18473 348.64308,318.48459 C 348.34448,317.70645 360.51477,307.91757 379.95073,293.30304 C 397.43861,280.15332 412.24357,269.26165 412.85064,269.09931 C 415.18439,268.47523 416.74721,281.09766 416.72537,300.39447 C 416.70539,318.04774 416.50745,320.10327 413.9328,329.39447 C 410.77421,340.79292 403.49878,356.68813 397.18375,365.98742 C 392.73878,372.53293 378.78853,387.66052 374.1545,390.96024 L 371.52008,392.83612 L 360.32582,356.29684 z M 189.26125,260.70063 C 189.28665,258.39198 198.9033,239.29066 203.29912,232.81752 C 209.26705,224.02937 221.32048,211.63487 230.68047,204.66139 C 240.33201,197.47071 255.7612,189.83367 267.34962,186.51115 C 275.99026,184.03379 295.78403,181.0983 296.8255,182.13977 C 297.39755,182.71182 271.53457,258.89256 270.38515,260.02121 C 270.0341,260.36592 251.63437,260.95369 229.49687,261.32737 C 196.69033,261.88114 189.24953,261.76524 189.26125,260.70063 z M 354.81585,260.92085 L 329.88482,260.39447 L 316.49733,221.54632 C 309.13421,200.17984 303.36088,182.44713 303.66771,182.14029 C 304.70961,181.09839 324.50135,184.03317 333.14412,186.51115 C 344.73254,189.83367 360.16173,197.47071 369.81327,204.66139 C 379.17326,211.63487 391.22669,224.02937 397.19462,232.81752 C 401.53578,239.21017 411.20645,258.38012 411.23249,260.64447 C 411.24781,261.97652 406.02752,262.0021 354.81585,260.92085 z M 528.74687,386.01649 C 525.44687,385.06197 521.39687,383.62596 519.74687,382.82535 L 516.74687,381.3697 L 515.99581,328.38209 C 514.9308,253.24466 515.29996,223.40902 517.31961,221.39149 C 519.38385,219.32944 532.7923,213.89447 535.8153,213.89447 C 537.1263,213.89447 538.63693,214.75478 539.21169,215.82873 C 540.79652,218.79002 540.63609,385.10525 539.04687,386.69447 C 537.51027,388.23107 536.07702,388.13673 528.74687,386.01649 z M 56.8183,385.32304 C 55.41892,383.92366 55.24687,375.89359 55.24687,311.98004 C 55.24687,272.50568 54.95788,234.83395 54.60468,228.26509 C 54.02839,217.54736 54.14864,216.13556 55.77645,214.50775 C 57.18241,213.10179 58.47565,212.83534 61.52617,213.32314 C 66.75026,214.15851 76.36543,217.57732 77.89663,219.1439 C 79.76126,221.0516 80.28478,376.93795 78.43405,379.16852 C 77.27845,380.56129 61.56588,386.89447 59.26603,386.89447 C 58.78406,386.89447 57.68258,386.18733 56.8183,385.32304 z M 496.74687,373.30186 C 489.47485,371.57356 484.99714,369.86801 484.01218,368.45124 C 483.6081,367.87002 483.2706,337.36853 483.26218,300.67015 L 483.24687,233.94583 L 485.99687,232.52435 C 487.50937,231.74254 492.08591,230.0889 496.16696,228.84961 L 503.58704,226.59634 L 505.41696,228.85619 C 507.15169,230.9985 507.24687,234.80125 507.24687,301.97007 C 507.24687,370.99792 507.19702,372.85078 505.31261,373.85929 C 504.24877,374.42864 503.23627,374.85698 503.06261,374.81116 C 502.88895,374.76534 500.04687,374.08615 496.74687,373.30186 z M 89.1808,371.2207 C 88.54926,369.55961 88.27457,357.21651 88.45556,338.63119 L 88.74687,308.71544 L 91.10765,306.80496 C 93.0019,305.27202 95.0868,304.89447 101.65765,304.89447 C 106.69371,304.89447 110.30892,305.35652 111.04687,306.09447 C 111.92435,306.97195 112.24687,314.99336 112.24687,335.93948 C 112.24687,369.04086 113.16313,366.16656 101.09342,370.92766 C 91.91758,374.54722 90.45919,374.5831 89.1808,371.2207 z M 124.8192,357.32394 C 123.47891,355.98365 123.24687,352.29409 123.24687,332.32304 C 123.24687,303.65608 122.66896,304.89447 136.04687,304.89447 C 141.55798,304.89447 145.29535,305.34295 146.04687,306.09447 C 146.90673,306.95433 147.24687,313.46712 147.24687,329.07142 C 147.24687,353.97482 147.97383,352.04754 137.19338,355.72481 C 128.04912,358.84397 126.53491,359.03966 124.8192,357.32394 z M 462.24687,356.73573 C 451.99652,353.67486 450.14006,352.74373 449.16274,350.1732 C 448.65901,348.84829 448.24687,339.29867 448.24687,328.95182 C 448.24687,314.07248 448.53873,309.89714 449.64287,308.98078 C 450.55648,308.22255 454.61667,307.92108 461.39287,308.10834 L 471.74687,308.39447 L 472.01455,332.59983 C 472.32845,360.98549 472.77591,359.87981 462.24687,356.73573 z M 449.44687,294.69447 C 448.58701,293.83461 448.24687,287.32182 448.24687,271.71752 C 448.24687,246.81412 447.51991,248.7414 458.30036,245.06413 C 472.88534,240.08911 472.24687,239.01778 472.24687,268.4659 C 472.24687,297.13286 472.82478,295.89447 459.44687,295.89447 C 453.93576,295.89447 450.19839,295.44599 449.44687,294.69447 z M 99.617024,293.15242 C 88.03564,292.67526 88.30757,293.17277 87.66426,271.28434 C 86.94819,246.92014 88.16239,226.97325 90.44907,225.53536 C 93.59887,223.55474 111.57336,231.19708 112.79141,235.0348 C 113.17223,236.23466 113.15399,249.53068 112.75087,264.5815 C 112.08113,289.58675 111.86099,292.03062 110.19814,292.92055 C 109.19726,293.45621 108.23627,293.80287 108.06261,293.69092 C 107.88895,293.57897 104.08844,293.33665 99.617024,293.15242 z M 124.44687,291.69447 C 123.58231,290.82991 123.24687,283.99118 123.24687,267.22965 C 123.24687,239.62803 122.61081,240.89486 134.65706,244.50426 C 148.22681,248.57014 147.24687,246.52257 147.24687,270.81053 C 147.24687,288.91872 147.03755,291.76082 145.66508,292.28748 C 142.69915,293.42561 125.703,292.9506 124.44687,291.69447 z M 152.24687,228.83589 C 141.38365,225.67605 134.77111,220.35393 136.92542,216.50438 C 139.12989,212.56522 214.55609,136.89447 216.27805,136.89447 C 219.77332,136.89447 228.93773,152.00573 227.91462,156.08211 C 227.15063,159.12611 159.96881,228.19488 157.02063,228.96733 C 155.77006,229.29499 153.62187,229.23584 152.24687,228.83589 z M 429.48394,213.63196 C 421.65355,205.78758 415.24687,199.00392 415.24687,198.55716 C 415.24687,197.00414 429.63805,181.89447 431.11722,181.89447 C 432.92442,181.89447 464.00433,212.55494 464.82809,215.15039 C 465.1493,216.16242 464.83752,217.68277 464.13526,218.52895 C 462.47573,220.52856 447.82406,227.89447 445.50613,227.89447 C 444.52431,227.89447 437.31432,221.47634 429.48394,213.63196 z M 110.66571,211.39635 C 102.03806,206.90926 100.81977,205.7323 101.59705,202.63537 C 102.07634,200.72573 170.84651,132.1284 199.52497,104.95358 L 204.21158,100.51269 L 206.66549,102.81802 C 209.38959,105.37718 216.24687,117.82455 216.24687,120.21019 C 216.24687,122.58758 122.71739,214.33804 119.93044,214.6946 C 118.6402,214.85967 114.47107,213.37546 110.66571,211.39635 z M 459.49687,194.70368 C 448.35937,183.52379 439.24687,173.62894 439.24687,172.71513 C 439.24687,170.33703 452.23573,158.89447 454.93519,158.89447 C 457.80564,158.89447 466.09517,166.35963 485.62414,186.53149 C 504.49709,206.02572 504.53958,206.14929 493.99687,210.87971 C 480.47305,216.94772 482.69392,217.98902 459.49687,194.70368 z M 76.74687,196.94457 C 70.40669,194.21336 67.65954,192.50515 67.45137,191.16453 C 67.24178,189.81481 74.59887,181.86657 92.75475,163.82798 C 106.83414,149.83955 119.50116,137.79321 120.90368,137.05834 C 123.19397,135.85832 123.81201,135.97715 126.97124,138.22497 C 131.96403,141.77739 139.24687,148.87158 139.24687,150.18261 C 139.24687,151.58731 97.07765,194.13392 91.84683,198.00685 C 89.70181,199.59504 87.45181,200.87807 86.84683,200.85803 C 86.24185,200.83798 81.69687,199.07693 76.74687,196.94457 z M 488.10723,176.353 C 470.175,158.28173 464.67628,152.15384 464.44307,149.98115 C 464.18639,147.58981 465.19251,146.20018 470.92919,141.02262 C 474.66364,137.65214 478.32501,134.89447 479.06556,134.89447 C 480.74154,134.89447 530.20034,182.85282 532.44747,186.65692 C 533.65985,188.70931 533.81836,189.9088 533.05697,191.26932 C 531.75324,193.59896 518.06384,199.89447 514.30183,199.89447 C 511.93132,199.89447 507.64551,196.04275 488.10723,176.353 z M 388.64748,172.56476 C 377.10829,161.07869 373.25547,156.6282 373.28118,154.81476 C 373.33703,150.87431 381.42716,136.43572 383.74687,136.13644 C 385.16057,135.95405 390.65715,140.68858 402.49687,152.2869 C 422.64987,172.029 422.44125,171.45068 412.97819,181.34206 C 409.53042,184.94588 406.11069,187.89447 405.3788,187.89447 C 404.64691,187.89447 397.11781,180.9961 388.64748,172.56476 z M 408.14261,143.26688 C 396.64995,131.82162 387.24021,121.76818 387.23207,120.92589 C 387.20628,118.25739 394.40565,102.04752 395.8654,101.48736 C 398.80154,100.36066 402.35553,103.31795 422.49687,123.64755 C 439.31687,140.62475 443.24687,145.10862 443.24687,147.32193 C 443.24687,150.14503 434.72265,161.03429 430.91929,163.06979 C 429.29864,163.93713 426.14665,161.19667 408.14261,143.26688 z M 246.36025,143.31148 C 243.74583,139.98778 240.24687,130.64021 240.24687,126.9794 C 240.24687,125.41738 240.86003,123.63048 241.60944,123.00853 C 242.59566,122.19004 258.54648,121.94906 299.35944,122.13608 L 355.74687,122.39447 L 356.05397,126.08969 C 356.36934,129.88447 353.07069,142.1969 351.10366,144.56702 C 350.21449,145.63841 340.20189,145.89447 299.19701,145.89447 L 248.39203,145.89447 L 246.36025,143.31148 z M 142.07928,133.14447 C 132.2631,123.07431 130.80475,126.26736 157.84734,98.620488 C 183.24279,72.65757 186.33607,69.89447 190.00602,69.89447 C 191.99952,69.89447 193.00256,71.230211 196.31174,78.291822 C 200.50843,87.247337 200.87832,89.220283 198.96143,92.425057 C 198.29342,93.541879 187.47817,104.45438 174.92754,116.67506 C 159.12716,132.06005 151.42784,138.89447 149.89624,138.89447 C 148.51992,138.89447 145.56677,136.72219 142.07928,133.14447 z M 426.46977,114.59761 C 409.16481,97.239818 402.24687,89.655893 402.24687,88.042799 C 402.24687,85.654239 407.34211,72.95354 409.83259,69.134193 C 411.19997,67.0372 411.50295,66.977285 414.02666,68.304805 C 417.35905,70.057713 464.12131,117.80722 465.98037,121.35536 C 467.01079,123.32199 467.05295,124.4114 466.16583,126.14754 C 464.13651,130.119 454.90326,138.89447 452.75393,138.89447 C 451.39345,138.89447 442.45751,130.63416 426.46977,114.59761 z M 251.30111,110.97958 L 232.85536,110.39447 L 231.09193,107.37198 C 230.12205,105.7096 228.20906,101.37539 226.84086,97.740397 C 222.75707,86.890769 221.23703,87.39447 258.06208,87.39447 C 295.67645,87.39447 293.24687,86.490166 293.24687,100.49044 C 293.24687,106.83153 292.85045,110.0268 291.99687,110.56588 C 290.40781,111.56946 274.87502,111.72737 251.30111,110.97958 z M 305.91354,110.2278 C 305.54687,109.86114 305.24687,105.3938 305.24687,100.30038 C 305.24687,86.189316 303.39531,86.89447 340.44747,86.89447 C 369.88081,86.89447 374.24687,87.321783 374.24687,90.202464 C 374.24687,92.40152 368.15367,107.33931 366.52033,109.14447 C 365.08121,110.73497 362.27757,110.89447 335.75855,110.89447 C 319.71046,110.89447 306.2802,110.59447 305.91354,110.2278 z M 220.98328,78.202527 C 218.85464,77.647382 216.77517,73.798052 213.66662,64.658528 C 211.35115,57.850764 211.34871,57.792627 213.29697,55.84437 C 215.21847,53.922867 216.97317,53.888351 300.00252,54.138824 L 384.74687,54.39447 L 384.63558,59.89447 C 384.57036,63.117611 383.5337,67.878316 382.13142,71.39447 L 379.73856,77.39447 L 340.74272,78.000994 C 294.06218,78.727042 223.4501,78.845869 220.98328,78.202527 z"
     id="path2384"
     sodipodi:nodetypes="ccccccccccccccccccccccccccccccccccccccscccsssccsssssccccsssssccsssssssccccscccssccssssssccssssssssccsscccsccssscccsccsssssccssssssccssssssccsssssccssssssssssccssssssssssccscccssccsssssssccssssssccccssssssccccssssscccccssssccsssssssccsccccccssscccccssssccsssssccssscccccssssccssssssccssssccssssccsssssccscccssccssssccsssssssccssssssccsssssccsssssccsscccsccccssssssccssssssccccssssccsssssccssccccccc" />
</svg>
